<svg xmlns="http://www.w3.org/2000/svg" width="322.963" height="316.958"><defs><clipPath id="a"><path data-name="Rectangle 13" fill="#8f529a" d="M0 0h251.472v202.749H0z"/></clipPath></defs><g data-name="Group 5"><g data-name="Group 4" transform="rotate(-40 222.055 80.822)" clip-path="url(#a)"><path data-name="Path 29" d="M219.818 82.099c3.512 1.134 6.226 1.884 8.848 2.915a31.585 31.585 0 0 1 4.332 2.52 22.128 22.128 0 0 1-2.957 3.732c-2.909 2.384-6.488 4.11-8.866 6.9-2.329 2.714-5.433 3.25-8.927 5.049 2.817 1.8 5.147 3.488 7.665 4.866 6.269 3.451 10.964 8.665 16.086 13.5 3.6 3.409 7.116 6.744 9.738 10.946.433.689.854 1.964.518 2.421a3.316 3.316 0 0 1-2.488.9 46.16 46.16 0 0 1-5.244-.677c8.318 15.452 11.348 31.624 12.946 47.93-3.36 2.214-4.232-.592-5.756-1.72-2.281-1.7-4.342-3.75-6.824-5.055-3.72-1.97-7.757-3.305-11.568-5.122-3.677-1.768-7.22-3.811-10.83-5.714a8.639 8.639 0 0 0-1.354-.4c-.384 1.927-.646 3.817-1.159 5.647-.335 1.177-.872 3.1-1.561 3.214-1.531.244-3.647.091-4.775-.829-4.506-3.744-8.738-7.824-13.074-11.793-2.61 2.653-3.348 6.2-4.189 9.769a46.428 46.428 0 0 1-2.561 7.421c-.793 1.9-3.207 2.025-4.878.2a51.882 51.882 0 0 1-3.829-5.055 26.256 26.256 0 0 1-1.378-2.348c-3.262 2.592-5.781 5.427-8.952 6.885-3.281 1.537-7.177 1.738-10.836 2.525-.134 4.5-2.317 6.976-6.628 8.6a21.369 21.369 0 0 1-13.19.348c-2.146-.555-4.031-2.122-5.884-3.14-1.274 2.384-2.573 4.512-3.549 6.775-1.775 4.061-5.342 4.708-9.055 4.854a63.244 63.244 0 0 1-6.817-.634 2.286 2.286 0 0 0-1.707.482c-3.336 4.177-8.068 4.6-12.824 4.744-1.884.055-3.787-.659-5.7-.8-3.451-.238-6.2-1.11-7.305-5.025-.573-2-2.646-1.482-4.159-.829-6.086 2.628-11.306-.2-17.044-2.134a8.94 8.94 0 0 1-7.738 2.366 70.844 70.844 0 0 1-9.025-1.75c-4.3-1.384-7.4-4.189-8.543-8.836a2.457 2.457 0 0 0-1.884-1.384c-6.067.866-9.074-3.439-12.489-7.116-2.988-3.226-4.8-6.872-4.006-11.336-.75-.152-1.079-.342-1.268-.25-4.2 2.067-7.781.518-11.549-1.518-7.683-4.144-9.883-12.526-4.952-19.813.689-1.012.97-2.348 1.768-3.232 3.22-3.494 10.818-2.982 13.976.8.262.3.811.366 1.39.61.488-4.482 3.72-6.939 6.83-9.251a7.249 7.249 0 0 1 4.921-.835c4.61.61 9.305 1.177 13 4.512a3.793 3.793 0 0 0 1.342.457c3.75-10.476 14.781-13.775 23.007-7.5 3.921-2.092 7.592-4.043 11.141-5.927 1.1-4.189 2.3-8.757 3.622-13.769-2.4-.756-5.391-1.726-8.4-2.64a14.257 14.257 0 0 1-2.488-.561 2.554 2.554 0 0 1-1.189-1.64c-.061-.317.744-.963 1.262-1.177 3.018-1.25 6.238-2.11 9.061-3.671 3.982-2.207 6.86-5.7 9.36-9.586-7.592-2.116-15-4.153-22.379-6.269-3.433-.988-6.824-2.11-10.208-3.25-1.335-.445-2.756-.884-2.439-2.89s1.8-1.665 3.073-1.64a12.909 12.909 0 0 0 9.919-3.679c-2.707-1.677-5.086-3.311-7.61-4.683-6.439-3.518-12.97-6.885-19.4-10.385a108.6 108.6 0 0 1-9.39-5.543c-.86-.591-1.037-2.2-1.531-3.336a9.7 9.7 0 0 1 3.025-.854 52.456 52.456 0 0 0 25.506-5.042c7.33-3.384 15.19-5.592 22.946-8.366-1.714-1.811-3.97-3.939-5.884-6.342-.866-1.1-1.744-2.951-1.378-4.037.323-.939 2.47-1.915 3.7-1.781 6.854.744 13.848 1.2 20.458 2.988a27.208 27.208 0 0 1 13.879 9.36c2.1 2.6 4.83 4.708 6.964 6.744-.1-2.573.134-5.452-.439-8.165-1.061-5.061.817-10.873-3.647-15.117a1.128 1.128 0 0 1-.3-.488 260.862 260.862 0 0 1-.781-4.226c1.7.091 3.744-.378 5.08.39 3.8 2.2 7.305 4.9 11.415 7.744a62.594 62.594 0 0 1 .409-6.555 6.3 6.3 0 0 1 1.6-3.36c.348-.335 1.927.409 2.829.89a75.721 75.721 0 0 1 6.793 3.915c6.5 4.384 12.635 9.208 15.727 16.751a30.305 30.305 0 0 1 1.311 6.561 35.989 35.989 0 0 0 1.781 7.8c1.335-3.939 2.567-7.927 4.067-11.8 2.659-6.866 5.9-13.373 11.22-18.7 3.244-3.256 5.848-7.2 9.251-10.251 4.659-4.2 9.257-8.683 16.769-6.915 4.89 1.153 9.671 1.994 14.037 4.842 4.043 2.622 5.653 5.573 4.677 10.446-.909 4.476-1.555 8.842-4.073 12.848-2.281 3.622-6.714 4.238-9.531.89-2.549-3.018-5.763-5.409-9.781-4.47a23.628 23.628 0 0 0-8.519 4.3 25.541 25.541 0 0 0-9.531 14.641c-1.567 6.458-3.281 12.879-4.909 19.312-1.781 7.006-3.494 14.019-5.336 21a21.439 21.439 0 0 1-1.817 3.7l.756.537c1.988-1.945 3.9-3.988 5.988-5.811 5.238-4.567 11.208-7.592 18.3-7.805 9.452-.28 18.91-.482 28.374-.671a10.452 10.452 0 0 1 3.988.4c1.787.713 1.348 2.055.11 3.012-1.823 1.4-3.762 2.64-6.476 4.531m-77.816-25.174c.3-.1.6-.2.915-.287-.9-4.208-1.866-8.4-2.683-12.635a18.606 18.606 0 0 1-.317-4.83c.043-.549 1.018-1.323 1.683-1.451.427-.091 1.354.689 1.549 1.25.994 3.006 1.951 6.043 2.677 9.122a60.3 60.3 0 0 1 1.415 8.458 63.969 63.969 0 0 1-.128 7.116 59.668 59.668 0 0 1 4.586-5.2c.6-.543 1.951-.457 2.884-.268.317.055.781 1.567.506 1.976-1.1 1.677-2.683 3.067-3.659 4.8-1.061 1.872-2.817 3.7-1.3 6.263a19.155 19.155 0 0 1 2.461 11.626c-.183 2.183.555 2.738 2.384 2.518.72-1.378 1.768-2.567 1.964-3.878 1.262-8.488 4.134-16.775 2.262-25.636-1.348-6.3-1.524-12.848-2.921-19.129a20.773 20.773 0 0 0-4.58-8.6 56.236 56.236 0 0 0-8.866-7.854 57.568 57.568 0 0 0-6.708-3.909c-.439 3.14-.781 5.9-1.232 8.635-.36 2.287-1.994 2.2-3.409 1.323-1.884-1.128-3.488-2.7-5.293-3.958-1.543-1.073-3.2-1.976-4.458-2.744.518 2.738 1.159 5.421 1.494 8.129.494 4.2-.616 8.519 1.116 12.6a66.726 66.726 0 0 1 2.884 7.317c.323 1.1-.238 2.457-.4 3.7-1.2-.384-2.677-.445-3.543-1.2-2.64-2.317-5.08-4.86-7.513-7.391-1.909-1.982-3.47-4.378-5.6-6.055-3.329-2.622-6.726-5.781-10.61-6.915-5.994-1.75-12.428-1.982-19.111-2.921 2.25 2.744 4.281 5.177 6.256 7.659 1.366 1.72.9 3.5-1.2 4.2-2.159.713-4.415 1.122-6.592 1.756-4.281 1.268-8.738 2.159-12.757 3.982-7.9 3.592-15.672 7.342-24.617 7.293-.531 0-1.049.439-1.47.622 5.842 3.354 11.488 6.622 17.16 9.842 4.384 2.482 8.842 4.848 13.19 7.378 3.464 2 3.6 4.147.5 6.689-1.537 1.262-3.22 2.329-4.9 3.519 3.89 1.354 7.47 2.878 11.2 3.836 4.9 1.256 9.909 2.128 14.9 2.994a3.353 3.353 0 0 0 2.561-.988c3.268-3.647 6.415-7.415 9.61-11.159-.927-.86-1.628-2 .909-2.982a58.768 58.768 0 0 0 5.305-2.622c-1.335-2.878-3.817-3.415-6.561-3.183-1.36.122-2.689.567-4.037.823-4.573.848-9.122 1.787-13.72 2.433-1.055.146-2.262-.774-3.4-1.207.793-1.031 1.409-2.348 2.433-3.043a63.642 63.642 0 0 1 6.1-3.287l-.1-1.043-12.772-1.795a47.508 47.508 0 0 1-5.683-.884 2.51 2.51 0 0 1-1.524-1.854 2.4 2.4 0 0 1 1.628-1.707 22.085 22.085 0 0 1 4.531.451c5.537.762 11.068 1.549 17.227 2.415a12.1 12.1 0 0 0-1.342-2.061c-2.573-2.122-5.177-4.177-7.763-6.281-2.183-1.774-2.14-2.293.232-3.964q9.485 7.336 18.946 14.678l.72-.732c-.768-2.817-1.7-5.592-2.226-8.464a3.936 3.936 0 0 1 .951-3.293c1.317-.951 2.6-.415 3.238 1.427.89 2.61 2.342 5.061 3.037 7.714 1.6 6.08 5.6 9.4 12.19 9.635.421-2.866-.384-3.951-3.2-4.726-.646-.183-1.14-.915-1.714-1.39.622-.463 1.268-1.335 1.872-1.311a60.851 60.851 0 0 1 6.049.774c.1.732.256 1.47.3 2.214.2 2.616 1.835 2.945 3.793 2.159a7.99 7.99 0 0 1 7.946.884c.939.616 2.354.531 4.067.866-1.47-1.854-2.707-3-3.427-4.409a28.092 28.092 0 0 1-2.354-6.244c-.2-.768.677-1.8 1.067-2.714a9.8 9.8 0 0 1 1.866 1.3c1.11 1.213 2.085 2.537 3.122 3.823m42.515 118.019.933-.152c.366-1.549.75-3.092 1.122-4.647 1.146-4.811 3.031-9.275 6.5-12.873a2.7 2.7 0 0 1 2.561-.384c2.781 2.683 5.275 5.659 8.068 8.33 1.927 1.835 4.177 3.342 6.677 5.287.378-2.677.506-4.6.933-6.47.933-4.092 3.464-4.7 6.83-2.183a56.859 56.859 0 0 0 8.622 5.049c4.671 2.305 9.494 4.311 14.19 6.574 2.11 1.012 4.061 2.342 6.592 3.823a1521.28 1521.28 0 0 1-.933-4.366c-.921-4.269-1.9-8.525-2.744-12.812-1.72-8.781-4.58-17.086-9.592-24.587a3.242 3.242 0 0 1-.256-2.933 4.374 4.374 0 0 1 2.988-1.037 21.752 21.752 0 0 1 4.043.512 6.636 6.636 0 0 0-.915-1.762c-3.909-3.848-7.891-7.61-11.787-11.47a48.108 48.108 0 0 0-13.232-9.214c-2.037-.982-3.689-2.994-5.2-4.805-1.463-1.787-.22-5.622 1.982-5.75 3.445-.2 5.58-2.36 7.878-4.3 2.287-1.921 4.384-4.061 6.738-6.275-3.1-1.226-5.793-2.311-8.494-3.354-2.817-1.085-3.049-2.3-.89-4.61a24.872 24.872 0 0 0 1.957-3.049c-7.677.159-14.641.384-21.623.421a29.3 29.3 0 0 0-16.013 4.543c-2.836 1.817-5.336 4.171-8.025 6.244-2.579 1.976-5.208 3.9-7.793 5.83a36.691 36.691 0 0 0 2.012 3.409c.421.579.573 1.457 1.842.171 1.89-1.921 4.665-2.951 7.007-4.458a108.668 108.668 0 0 0 9.3-6.354c1.073-.86 1.86-2.384 3.11-1.226.579.531.335 2.537-.183 3.555a26.062 26.062 0 0 1-3.287 4.22 5.113 5.113 0 0 0 1.439.323c6.793-.878 12.293-5.141 18.672-7.11.689-.22 2.037-.311 2.165-.043a3.522 3.522 0 0 1 .11 2.506 3.747 3.747 0 0 1-1.781 1.7c-3.579 1.726-7.214 3.348-10.97 5.067 3.043.982 5.86 1.75 8.549 2.842.915.366 1.5 1.543 2.226 2.348-1.061.281-2.177.915-3.2.774-3.793-.512-7.561-1.323-11.342-1.9a18.073 18.073 0 0 0-3.439.091c6.61 3.177 7.025 9.421 8.446 15.08a4.218 4.218 0 0 1 1.36.274c2.518 1.506 4.872 3.451 7.561 4.525 4.549 1.8 9.324 3.031 13.946 4.628.7.238 1.165 1.134 1.738 1.738a7.133 7.133 0 0 1-2.488.976 18.97 18.97 0 0 1-3.933-.817c-3.1-.738-6.2-1.5-9.293-2.25-.116.22-.226.427-.335.646 1.384 1.256 2.756 2.525 4.153 3.775 2.525 2.25 4.817 4.9 7.659 6.653 4.275 2.628 8.964 4.573 13.409 6.933.738.39 1.134 1.4 1.683 2.116-.8.281-1.683.921-2.4.774-3.031-.61-6.037-1.451-9.805-2.4 2.073 2.457 3.811 4.36 5.336 6.415a11.058 11.058 0 0 1 1.061 3.018c-1.134-.116-2.256-.189-3.378-.384-.293-.043-.524-.445-.774-.7q-5.815-6.027-11.624-12.078c-.768-.8-1.488-1.653-2.122-2.36-.482 3.476-.866 6.7-1.451 9.879-.11.616-.982 1.092-1.512 1.64-.512-.579-1.4-1.1-1.476-1.732-.323-2.488-.421-5.012-.567-7.519-.293-4.836-.433-9.751-3.817-13.665a25.316 25.316 0 0 0-4.019-3.1c-2.756 4.628-4.342 10.287-9.958 11.647 1.171 3.177 2.055 6.3 3.451 9.165 1.945 4 .781 7.793-.823 11.232-1.628 3.506-4.086 6.75-8.763 6.726-.409-.006-1.2.622-1.171.9.146 1.744.024 3.75.848 5.159a78.479 78.479 0 0 0 5.714 7.616m-22.925-84.627c.726-.726 1.781-1.293 2.073-2.128 2.4-6.842 5.025-13.629 6.885-20.623 2.14-8.049 2.567-16.452 5.634-24.4 1.951-5.073 3.9-9.994 7.616-13.867 5.677-5.915 11.909-10.927 21.056-8.238a17.107 17.107 0 0 0 2.3.329c.213-5.5 3.1-9.33 7.671-12.324-1.189-.9-1.9-1.835-2.762-2.031q-6.009-1.381-12.08-2.4a5.094 5.094 0 0 0-3.323.4 31.2 31.2 0 0 0-5.622 4.482c-3.933 4.061-7.616 8.372-11.507 12.47-5.976 6.305-9.025 14.159-11.336 22.221a131.653 131.653 0 0 0-3.927 20c-.579 4.72.165 9.6-.11 14.379-.091 1.543-1.573 3.006-2.433 4.5-2-1.153-1.762.628-2.262 1.64a21.684 21.684 0 0 1-1.873 2.78c1.244.872 2.518 1.768 3.994 2.805m-74.526 28.495c-.6 4.756-.488 8.281 1.97 11.714a11.544 11.544 0 0 0 15.306 3.726c3.634-1.872 5.262-5.134 7.433-8.068 2.5-3.4 1.531-11.617-1.439-14.434-3.476-3.287-7.409-3.97-12.165-3.384-6.153.756-10.659 5.836-11.1 10.446m86.706-14.659c-1.274 1.774-2.439 3.25-3.451 4.83-1.189 1.86-2.97 3.72-3.177 5.708a20.127 20.127 0 0 0 1.1 8.811c1.213 3.22 3.092 6.537 7.439 6.342 1.921-.079 3.811-.72 5.732-.787 3.427-.128 5.464-2.171 6.519-4.994a33.733 33.733 0 0 0 2.159-9.116c.494-6.781-5.628-11.775-11.806-11.379-1.683.11-3.354.433-4.512.585m-49.632 46.428c4.83.707 8.049-1.293 11.031-5.287a12.78 12.78 0 0 0 1.793-12.781 8.363 8.363 0 0 0-4.7-4.5c-2.732-.872-5.891-.311-8.793-.793-2.409-.4-4.714-.537-6.244 1.439a27.052 27.052 0 0 0-3.8 6.635c-2.842 7.214 4.836 14.172 10.708 15.287m12.086-52.716c-3.287.213-6.378.207-9.4.683-2.14.335-5.019.7-6.055 2.146a22.694 22.694 0 0 0-3.39 8.793c-.341 1.671.7 3.647 1.189 5.464 1.543 5.7 9.744 9.354 14.928 6.622 2.61-1.378 5.11-2.939 7.683-4.39.909-.512 1.86-.921 2.951-1.451-5.659-5.012-8.586-10.769-7.9-17.867m-6.506-5.842c6.6.348 7.391 1.049 9.324-1.207 2.268-2.64 5.275-5.354 5.988-8.488 1.421-6.281-4.293-12.33-11.543-13.446-6.031-.927-11.738 4.317-12.336 12.074-.335 4.427 2.018 11.068 8.568 11.068m32.036 22.088a24 24 0 0 1-2.39 1.079c-2.525.787-4.293 3.3-7.494 2.689a8.306 8.306 0 0 0-9.805 8.415c.018 1.439.994 2.842 1.1 4.293.433 5.336 9.19 11.171 15.062 8.409 3.659-1.72 7.2-6.324 5.921-9.482-1.97-4.86-3.336-9.683-2.39-15.4m-54.946 51.197a7.709 7.709 0 0 0-.951-.372c-.47-.067-.951-.091-1.427-.14-5.458-.47-10.751-1.146-13.928-6.58-.689-1.183-2.085-1.232-3.043-.012-.7.9-1.079 2.018-1.8 2.89-4.4 5.342-2.275 11.1 2.037 13.861 4.781 3.067 10.171 6.348 16.653 3.4 2.171-.994 3.769-1.976 3.6-4.4-.213-2.97-.762-5.915-1.14-8.647m15.58 11.171c1.421-.512 2.842-1.006 4.238-1.537 1.9-.726 3.8-1.451 5.683-2.232a5.221 5.221 0 0 0 1.384-.921c2.47-2.214 2.122-4.7.951-7.488a12.682 12.682 0 0 0-3.872-5.555c-1.842-1.409-3.268-3.189-5.988-1.829-.7.341-1.848-.3-2.793-.366a31.785 31.785 0 0 0-5.433-.146c-1.787.207-4.122 6.555-3.354 8.781a26.841 26.841 0 0 1 1.311 3.323c.72 3.482 4.171 6.9 7.872 7.97m-1.683-82.98a29.368 29.368 0 0 0-2.25-2.207c-2.354-1.951-1.463-6.141-5.043-7.263-.171-.061-.11-.707-.232-1.049-1.177-3.183-4.208-4.244-6.665-2.1a65.675 65.675 0 0 0-5.958 6.189 10.079 10.079 0 0 0-1.927 10.139c1.22 3.787 4.512 5.36 8.427 5.482 1.8.055 3.61.03 5.421.049a37.659 37.659 0 0 0-.531-.524c2.714-2.7 5.409-5.391 8.757-8.72m51.844 63.449c.146-.232.3-.47.445-.7 1.421-.183 2.854-.3 4.262-.567a6.9 6.9 0 0 0 2.793-.915c2.659-2 4.165-4.708 3.4-8.068-.628-2.756-1.037-5.994-2.75-7.964-2.842-3.244-7.269-3.884-11.842-4.409.067 6.366-5.012 8.19-9.86 10.769 4.805 4.2 9.171 8.025 13.55 11.854m-22.474-45.747c.079.256.159.531.244.8 2.579-.817 5.4-1.238 7.726-2.531 6.287-3.506 6.72-6.006 2.671-11.94-.152-.226-.085-.628-.268-.793-2.171-1.964-4.183-4.208-6.647-5.671-.963-.573-2.97.61-4.512 1-.262.067-.537.171-.811.238-3.6.793-7.092 4.647-6.787 8.232.189 2.207 1.5 4.3 2.281 6.464 1.031 2.866 3.189 4.079 6.1 4.2m-12.269 42.984c.744 2.305 1.567 5.214 2.677 8.007.4 1 1.6 2.555 2.214 2.457a64.017 64.017 0 0 0 12.342-2.787c3.238-1.207 3.9-8.952 1.427-11.013a17.88 17.88 0 0 1-3.226-3.39c-1.293-1.848-6.817-4.22-8.915-3.561-.616.2-1.5.372-1.75.829-1.543 2.854-2.939 5.781-4.769 9.458m-94.418 6.721c-.256.091-.518.183-.774.268 1.25 3.573 2.207 7.293 3.89 10.653a6.525 6.525 0 0 0 4.519 3.214 25.6 25.6 0 0 0 8.8-1.274c3.329-1 3.384-2.1 1.165-4.878-2.409-3.025-5.464-5.714-4.915-10.244.39-3.14-.909-4.451-3.988-4.769-4.055-.421-8.7 3.775-8.7 7.031m34.618 10.763c-3.183 4.055-4.732 4.628-9.348 3.232-2.36-.726-3.061.439-2.964 2.378a48.352 48.352 0 0 0 .86 5.744c.982 5.531 3.683 8.257 9.007 8.372 2.244.043 4.512-.945 7.019-1.524.226-1.555-.03-3.531.848-4.628.561-.707 2.744-.134 4.976-.134-.531-1.329-.768-3.647-1.768-4.037-4.4-1.75-6.5-5.354-8.629-9.4m13.373-31.014c-2.183-2.311-4.086-4.634-6.33-6.574-1.567-1.354-1.653-4.244-4.86-4.049a7.675 7.675 0 0 0-6.385 5.4c-1.512 6.177-.061 11.263 5.134 15.135 2.268 1.677 5.7 1.8 7.22-.445a93.776 93.776 0 0 0 5.22-9.47m15.946-.884c-3.494.713-6.628 1.335-9.763 1.976a4.58 4.58 0 0 0-1.842.463c-1.323 1.031-3.177 8.726-2.415 10.123 2.153 3.939 4.9 6.817 9.933 7.08 3.14.165 4.537-1.835 5.659-3.714 1.079-1.811 2.183-5.031 1.317-6.293-2.146-3.128-2.64-6.427-2.89-9.635m-60.211 8.311c-.707-1.689-1.366-3.415-2.159-5.073a2.766 2.766 0 0 0-1.409-1.25c-3.415-1.262-6.836-2.549-10.318-3.616-3.317-1.024-8.494 3.134-8.409 6.6.03 1.524 4.445 6.817 5.97 7.311a40.135 40.135 0 0 0 4.116 1.543c1.293.268 2.957.543 3.982-.031 2.829-1.561 5.415-3.567 8.226-5.482m-27.788-2.36a37.186 37.186 0 0 1-3.9-1.2c-5.372-2.3-6.256-1.976-8.336 3.3-2.244 5.689.457 11.287 6.33 12.739a6.69 6.69 0 0 0 3.537-.433c1.884-.64 3.665-1.622 5.555-2.287 1.97-.683 2.122-1.646 1.3-3.555-1.335-3.1-5.311-4.842-4.488-8.561m41.893 12.2a23.12 23.12 0 0 0 1.329 2.915c1.579 2.354 3.128 4.738 4.866 6.97 1.567 2.006 4.378 1.506 6.1-.427 2.268-2.555 4.269-5 4.945-8.6.244-1.354.189-2.049-.689-2.421-3.037-1.274-5.177-3.494-7.189-6.006-1.037-1.3-2.262-1.714-3.092.5-.335.89-1.335 1.531-2.018 2.3-1.409 1.567-2.8 3.134-4.256 4.769m6.744-13.769a63.089 63.089 0 0 1-.671-6.775c0-4.256.122-4.25-4.214-4.512a34.985 34.985 0 0 1-2.275-.244 8.3 8.3 0 0 0-9.311 10.085 4.545 4.545 0 0 0 1.6 2.1c.7.61 1.75.848 2.409 1.494 1.732 1.7 3.384 2.055 5.616.744a57.538 57.538 0 0 1 6.854-2.9m38.417 41.015c-4.921-.311-9.318-.592-13.537-.854-.976 2.165-1.835 4.33-2.915 6.378a3.7 3.7 0 0 0 1.768 5.208c4.775 1.927 9.805 1.055 14.635-.323.506-.14.939-1.573.9-2.378-.159-2.756-.561-5.513-.848-8.031m36.222-1.14c.061.293.122.585.171.878 3.025-.762 6.1-1.335 9.037-2.348 1.842-.64 2.031-3.921.659-5.323a27.715 27.715 0 0 1-4.36-5.159c-.555-.97-.512-2.384-1.988-2.031-1.994.476-4.878.787-5.616 2.134a13.182 13.182 0 0 1-5.517 5.663c-1.226.659-1.366 1.3-.311 2.409 2.177 2.275 4.628 3.848 7.915 3.775M36.948 159.825c-2.311-1.518-4.83-.537-7.287 1.311-3.354 2.531-4.488 6.848-2.281 10.019a43.374 43.374 0 0 0 5.025 5.817c1.518 1.518 3.671 1.927 5.025.189 1.39-1.768 2.61-3.8 1.75-6.561a105.472 105.472 0 0 1-2.232-10.775m127.068-2.018c-1.213 2.293-2.25 4.019-3.049 5.848-1.171 2.756-3.8 3.647-6.013 5.134a2.259 2.259 0 0 0-.476 2.122 10.632 10.632 0 0 0 3.244 2.451c5.1 2.384 12.83-1.25 14.891-6.726a2.054 2.054 0 0 0-.134-1.781c-2.86-2.488-5.805-4.854-8.464-7.049m-50.082 20.208c-.354.049-.707.116-1.055.165-.024 3.549.061 7.1-.11 10.635-.1 2.177 1.067 2.677 2.829 3.079 4.964 1.146 9.08-.659 12.373-4.012 1.031-1.061.726-3.6.628-5.439-.012-.341-2-.768-3.086-.829-4.177-.238-8.372-.293-11.58-3.6m-53.948 2.927c-4.2-.317-8.061-.531-11.921-.927-2.256-.238-3.275.872-3.6 2.829-.427 2.433 1.86 5.3 4.689 6.074 2 .549 3.976 1.494 6.006 1.622 1.994.128 4.049-.531 6.08-.842-.3-1.14-.634-2.275-.89-3.427a9.182 9.182 0 0 1-.061-1.427c-.1-1.39-.22-2.787-.3-3.9m32.3-84.694c-3.494 3.073-7.019 6.177-10.543 9.263 5.732 2.555 7.525 2.311 12.141-1.915a2.569 2.569 0 0 0 .835-2.049 54.642 54.642 0 0 0-2.433-5.3m125-82.816c-5.214 2.165-5.293 6.445-5.982 10.19-.189.97 1.177 2.232 1.957 3.579 3.872-4.232 2.872-8.909 4.025-13.769M116.22 77.509c.518-2.1 1.1-4.415 1.665-6.738-.226-.244-.457-.488-.683-.732-2.842 1.22-5.659 2.433-8.555 3.677 2.75 1.378 5.012 2.512 7.574 3.793" fill="#8f529a"/></g></g></svg>