<svg xmlns="http://www.w3.org/2000/svg" width="221.729" height="151.246"><defs><clipPath id="a"><path data-name="Rectangle 51" fill="#f7f3ea" d="M0 0h221.729v151.246H0z"/></clipPath></defs><g data-name="Group 34" opacity=".601"><g data-name="Group 33" clip-path="url(#a)" fill="#f7f3ea"><path data-name="Path 1202" d="M32.959 9.428C36.189 4.665 39.586.092 46.012 0c2.393-.027 4.6.769 6.844 1.2 4.006.784 8 2.29 9.629 6.871 2.142 6.034 6.772 9.161 11.832 12.049 4.288 2.439 8.975 3.843 13.244 6.308a14.482 14.482 0 0 1 6.186 18.418 9.4 9.4 0 0 1-5.433 5.383c-2.024.746-4.364.2-6.11 1.206-4.839 2.793-10.535 2.245-15.446 4.828-1.628.86-2.241 1.313-1.8 3.059A53.912 53.912 0 0 0 69.722 71c4.6 8.933 5.536 17.748.224 26.826a13.164 13.164 0 0 1-21.188 2.427c-3.675-4.238-3.424-9.705-2.743-14.891.369-2.8 1.039-5.616 1.484-8.45.841-5.471 2.271-10.832 2.952-16.344.1-.81.156-1.644-.392-2.115-.464-.392-.993.308-1.465.574a34.151 34.151 0 0 1-5.714 2.678c-6.578 2.355-13.217 4.28-20.225 4.147a39.153 39.153 0 0 0-6.939.137c-2.032.323-4.151 1.157-5.524-1.461-.171-.339-.86-.422-1.324-.533A11.365 11.365 0 0 1 .102 51.21c.7-5.551 2.739-10.44 8.153-12.867a31.543 31.543 0 0 0 4.326-2.287C16.976 33.21 22.439 32.012 24.665 26c1.453-3.907 3.881-7.415 5.707-10.8.164-2.56 1.5-4.174 2.587-5.768m-5.342 20.16c-1.75 4.021-4.775 5.927-8.123 7.845-3.88 2.234-8.076 3.847-11.706 6.563-2.7 2.02-4.276 7.86-3.1 11.033a8.007 8.007 0 0 0 11.729 3.865c6.456-3.957 12.106-9.005 18.026-13.708 1.8-1.423 4.113-1.937 6.053-2.983 4.6-2.481 9.683-2.317 14.476-3.276 3.116-.624 6.86.3 10.3.837a15.441 15.441 0 0 1 6.951 3.108 21.793 21.793 0 0 0 10.139 3.9c3.291.434 6.414-.559 7.765-3.713a9.553 9.553 0 0 0-.959-9.641 12.454 12.454 0 0 0-4.889-3.945c-5.917-2.877-12.057-5.242-17.509-9.156a20.032 20.032 0 0 1-7.137-9.032c-1.3-3.241-3.295-5.246-6.73-5.745-1.548-.221-2.914-1.206-4.6-1.32-5.391-.373-8.621 3-11.357 7.069-1.275 1.91-2.766 3.8-3.089 6.19-1.86 4.234-4.436 8-6.236 12.11m27.868 31.4c-.742.719-.951 2.131-1.2 3.287-.886 4.2-1.895 8.385-2.465 12.646-.453 3.34-1.088 6.624-1.739 9.93a15.971 15.971 0 0 0 1.1 9.374c1.594 3.649 8.606 4.98 11.821 2.743 5.935-4.147 7.373-12.418 5.665-19.4-.917-3.747-3-6.932-4.448-10.417-1.526-3.713-3.534-7.282-3.207-11.539.08-.993-.441-1.179-1.084-1.282a11.606 11.606 0 0 0-4.1-.259c1.012 1.906 1.229 3.382-.342 4.919m-19.16-7.78c-3.512-.966-3.512-.993-6.825 1.625 1.727.361 3.222.647 4.714.974a5.624 5.624 0 0 1 2.306.681c3.561 2.964 6.4.422 9.995-1.366-3.683-1.2-7.027-1.046-10.189-1.914m28.571-9.059c-6.787-.848-7.156-.335-5.326 7.076.179.715.495.788.97.7.548-.107 1.267.487 1.621-.529a26.423 26.423 0 0 1 3.188-6.955c-.327-.217-.38-.285-.453-.3M53.313 51.2c.8 1.655 2.062-.049 3.2.32-.369-1.141-.62-2.127-.989-3.055-.62-1.552-.068-4.158-1.3-4.6-1.507-.544-3.523.434-5.722.833a28.818 28.818 0 0 1 4.811 6.502m-8.564-4.824A.972.972 0 0 0 43.665 46c-2.268.772-4.767.951-6.768 2.96 4.037 1.176 8.309.6 12.232 2.56-1.465-1.716-2.918-3.436-4.379-5.144M21.013 61.143c3.755.746 7.419.118 11.535-1.252-4.265-1.015-8.246-3.591-11.535 1.252M73.47 48.661c-1.571-.734-3.26-2.865-4.615-2.013-1.583.993-2.37 3.382-3.359 5.5 2.713-2.823 6.274-1.849 10.025-2.637-1.061-.441-1.567-.62-2.051-.848m-23.855 3.791c-.027-.107-.049-.213-.072-.316-.072.034-.186.046-.209.1s.049.148.08.228c.072 0 .129-.011.2-.015"/><path data-name="Path 1203" d="M134.529 133.746c-11.76 6.647-30.448 7.2-39.145-9.683a5.766 5.766 0 0 0-2.268-2.355c-3.74-2.279-5.3-6.034-5.68-10.345-.476-5.406 1.6-10.112 4.265-14.48a34.089 34.089 0 0 1 12.734-12.264c-5.345-5.992-7.51-13.05-7.168-21.169.6-14.453 9.542-23.227 19.125-31.623 7.168-6.281 16.192-8.127 24.752-10.717a22.4 22.4 0 0 1 14.031.24c7.986 2.964 16.325 4.425 24.444 6.791 6.6 1.921 13.51 1.769 19.913 5.551 18.863 11.14 24.836 28.58 21.176 49.113-1.469 8.225-2.952 16.318-1.959 24.92a38.755 38.755 0 0 1-31.627 42.767c-10.512 1.99-20.324-.232-30.037-3.58-8.012-2.758-15.37-6.947-20.978-14.077-.384.217-.978.574-1.579.909m8.225-67.42c1.295-5.005 2.551-10.005 5.427-14.224 1.115-1.628-1.1-3.226 1.195-4.352-3.786-.673-5.307.989-6.293 4.086-1.469 4.623-3.4 9.078-4.98 13.662-1.552 4.482-.1 11.048 2.869 13.78-.08.179-.164.354-.243.529l.521.019c-.129-.175-.263-.342-.4-.517 1.332-4.2.791-8.686 1.9-12.981m-25.375-6.822c2.134-4.417 5.707-7.172 9.721-9.42 4.078-2.294 8.511-3.8 12.4-6.548 1.617-1.138 3.276-1.134 5.577-.133a14.968 14.968 0 0 0 9.884.32c6.7-2.169 12.665-.453 18.25 2.8a37.525 37.525 0 0 0 11.969 4.912c6.293 1.195 10.687 6.73 12.376 13.365 1.244 4.893 3.42 9.534 4.843 14.484 2.766 9.66 2.013 19.091.1 28.595-.985 4.893-2.488 9.667-3.671 14.522a11.451 11.451 0 0 1-4.341 6.525c-10.192 8-21.446 8.191-33.081 4.961-4.969-1.381-9.858-3.006-14.24-6.217-2.191-1.613-4.174 1.3-5.749 2.682-1.533 1.347.361 2.572 1.366 3.268 12.935 8.99 26.833 14.4 42.649 12.034a33.615 33.615 0 0 0 28.557-37.954c-1.255-9.333.8-18.121 2.294-27.066 2.671-15.975-1.069-29.428-13.928-39.3-4.771-3.66-9.888-6.4-15.933-7.183-10.284-1.343-20.252-4.257-30.151-7.4-6.03-1.914-12.026-2.1-17.9.2-5.7 2.241-11.942 2.987-16.961 7.156-8.212 6.827-16.631 13.534-18.876 25.112-1.465 7.571-1.141 15.013 4.661 21.016 2 2.07 3.949 2.089 6.224.73a20.578 20.578 0 0 1 6.59-2.865c-2.69-6.171-5.878-11.859-2.625-18.6m-2.9 25.194c-9.645 3.99-17.675 9.967-21.644 20.552-1.982 5.273-.731 9.279 3.493 12.673 2.477 1.982 2.88 5.482 5.254 7.807 7.773 7.605 18.8 9.953 28.409 5.1 4.611-2.325 8.948-5.22 13.419-7.849 5.764-3.4 9.382-9.028 13.076-14.427 3.9-5.707 2.747-10.208-2.994-13.845-2.444-1.546-5.095-2.726-7.588-4.186a46.031 46.031 0 0 0-7.7-3.983c-7.761-2.652-15.58-5.212-23.733-1.838m47.8 7.891c10.162-3.645 20.069-8.1 30.482-11 1.769-.495 4.725-.685 4.687-3.165a17.947 17.947 0 0 0-3.884-10.618c-.81-1.065-1.994.342-2.922.738-5.326 2.3-9.4 6.688-14.45 9.584-6.506 3.751-12.5 8.484-18.749 12.821 1.187 2.18 2.427 2.5 4.836 1.636m18.829 14.168a58.475 58.475 0 0 1 12.722 4.55c2.2 1.035 3.211.59 3.713-1.758.148-.7.506-1.343.662-2.032.7-3.162 1.191-5.456-3.386-6.361-5.966-1.176-11.581-4.185-17.478-5.908-4.6-1.339-9.093-.582-12.635 2.941 3.846 6.491 10.337 7.278 16.4 8.568m-1.5-36.585c2.888-1.849 5.452-4.314 8.617-5.669 2.454-1.05 1.788-2.108.453-3.565-2.005-2.2-4.508-3.6-6.947-5.136-1.29-.814-1.986-.224-2.7.791-5.893 8.412-13.343 15.61-17.634 25.464 6.521-3.264 12.129-7.986 18.212-11.885m-13.77-15.77a135.7 135.7 0 0 0-15.663 25.814c-.578 1.225-1.039 2.682-.015 3.55 1.271 1.077 2.138-.632 3.116-1.229a13.871 13.871 0 0 0 4.615-4.733 179.2 179.2 0 0 1 15.968-22.006c1.21-1.472 2.184-2.9-1.476-3.633-2.131-.936-4.539-.32-6.544 2.237m-3.764 55.516c-2.869 3.222-3.515 6.247-.647 9.447 2.2 2.454 2.781 5.817 4.215 8.678 1.027 2.043 1.944 2.458 3.721 2.663a33.662 33.662 0 0 0 14.248-.909 45583.492 45583.492 0 0 0-21.538-19.879m21.522 13.51a5.9 5.9 0 0 0 6.822 1.278c2.424-1.077 3.409-3.565 4.379-5.889.594-1.419-.632-1.9-1.674-2.393a77.283 77.283 0 0 0-24.326-7.073c5.4 5.148 10.093 9.622 14.8 14.077m-32.022-68.269a46.569 46.569 0 0 0-5.262 21.305 275.981 275.981 0 0 1 15.5-24.725c-6.11-2.462-7.335-1.99-10.242 3.42m46.842 29.364c-5.46 2.785-11.566 3.706-18.007 6.4 6.837 1.777 12.266 5.25 18.813 6.407-.19-4.508.5-8.648-.807-12.8m-68.938-19.654c-.122 3.934.75 7.9.852 11.855.084 3.485 2.846 2.728 5.5 4.326-5.513-11.234-1.36-20.773 2.73-30.467-6.749 1.37-8.811 5.182-9.081 14.286m-3.216-8.283c-3.356 2.058-6.274 4.592-5.775 8.983.438 3.843 1.107 7.917 5.11 10.626.483-6.993-2.705-13.377.666-19.609m30.763 64.655c-1.339-2.477-2.093-2.56-3.926-.365-3.2 3.824-3.359 3.675 1.073 5.517 1.876.776 3.755 1.541 6.175 2.53a29.055 29.055 0 0 0-3.321-7.681"/></g></g></svg>